<svg width="100px" height="100px" viewBox="0 0 575 575" class="roots-wrapper">
    <rect width="100%" height="100%" fill="#1b5e20" />
                <g transform="rotate(0 0 0)">
                    <svg viewboxsize="575" data-root-id="1958318427909" xmlns="http://www.w3.org/2000/svg"
                        xmlns:xlink="http://www.w3.org/1999/xlink" version="1.1" id="xxxx_1" x="0.6820033857810722"
                        y="1.5404817619393216"
                        viewBox="1742.280029296875 832.3499755859375 1515.429931640625 1335.2901611328125"
                        xml:space="preserve" height="501.18939342394555" width="568.8032534554928"
                        preserveAspectRatio="xMinYMin" zoom="1" editortype="buyer" data-layer-role="icon"
                        style="position: absolute; height: 501.189px; width: 568.803px; top: 1.54048px; left: 0.682003px;">
                        <path
                            d="M3152.35,1819.61c16.98,0,30.75-13.77,30.75-30.75c0-16.98-13.77-30.75-30.75-30.75c-16.98,0-30.75,13.77-30.75,30.75   c0,4.58,1.07,8.89,2.87,12.8l-130.81,66.35l-126.49-14.76l-101.2,34.25l52.6-56.48l108.69-40.49l108.41-146.56   c2.07,0.44,4.21,0.69,6.41,0.69c16.98,0,30.75-13.77,30.75-30.75c0-16.98-13.77-30.75-30.75-30.75   c-16.98,0-30.75,13.77-30.75,30.75c0,7.75,2.96,14.74,7.69,20.15l-103.86,140.41l-107.6,40.08l-80.06,85.97l-89.72,30.36   l78.89-74.25v-71.25l121.21-184.72l78.19-19.53l119.88-148.32c3.25,1.17,6.71,1.92,10.37,1.92c16.98,0,30.75-13.77,30.75-30.75   c0-16.98-13.77-30.75-30.75-30.75c-16.98,0-30.75,13.77-30.75,30.75c0,6.29,1.91,12.13,5.15,17.01L2905.14,1564l-51.66,12.9   l31.07-47.34c1.92,0.37,3.89,0.6,5.91,0.6c16.98,0,30.75-13.77,30.75-30.75c0-16.98-13.77-30.75-30.75-30.75   s-30.75,13.77-30.75,30.75c0,7.95,3.1,15.13,8.05,20.59l-91.31,139.15l-14.95-83.64l40.66-114.61c1.16,0.13,2.28,0.35,3.47,0.35   c16.98,0,30.75-13.77,30.75-30.75c0-16.98-13.77-30.75-30.75-30.75c-16.98,0-30.75,13.77-30.75,30.75c0,8.81,3.75,16.7,9.69,22.31   l-42.96,121.06l19.44,108.73l-63.67,97.02v68.69l-160.97,151.49v-208.29l117.2-197.61l-31.95-149.7l77.99-182.31l81.76-13.55   l43.4-90.74c1.37,0.19,2.72,0.42,4.14,0.42c16.98,0,30.75-13.77,30.75-30.75c0-16.98-13.77-30.75-30.75-30.75   c-16.98,0-30.75,13.77-30.75,30.75c0,8.6,3.55,16.36,9.25,21.94l-39.11,81.76l-59.7,9.9l69.63-162.77   c1.33,0.18,2.65,0.41,4.03,0.41c16.98,0,30.75-13.77,30.75-30.75c0-16.98-13.77-30.75-30.75-30.75   c-16.98,0-30.75,13.77-30.75,30.75c0,8.64,3.59,16.42,9.33,22.01l-119.19,278.63l-15.83-67.91l46.59-134.19   c0.22,0,0.42,0.06,0.64,0.06c16.98,0,30.75-13.77,30.75-30.75c0-16.98-13.77-30.75-30.75-30.75c-16.98,0-30.75,13.77-30.75,30.75   c0,9.87,4.73,18.56,11.96,24.18l-48.5,139.63l23.07,98.91l-27.34,63.91l31.65,148.31l-96.78,163.17V971.83   c12.23-4.06,21.11-15.46,21.11-29.06c0-16.98-13.77-30.75-30.75-30.75c-16.98,0-30.75,13.77-30.75,30.75   c0,13.59,8.88,24.99,21.11,29.05v781.89l-96.78-163.17l31.66-148.31l-27.34-63.91l23.05-98.91l-48.48-139.64   c7.23-5.63,11.96-14.31,11.96-24.18c0-16.98-13.77-30.75-30.75-30.75c-16.98,0-30.75,13.77-30.75,30.75   c0,16.98,13.77,30.75,30.75,30.75c0.22,0,0.43-0.06,0.65-0.07l46.58,134.19l-15.82,67.91l-119.2-278.63   c5.74-5.59,9.33-13.37,9.33-22.01c0-16.98-13.77-30.75-30.75-30.75c-16.98,0-30.75,13.77-30.75,30.75   c0,16.98,13.77,30.75,30.75,30.75c1.38,0,2.69-0.23,4.02-0.41l69.63,162.77l-59.7-9.9l-39.1-81.76c5.69-5.58,9.25-13.34,9.25-21.94   c0-16.98-13.77-30.75-30.75-30.75c-16.98,0-30.75,13.77-30.75,30.75c0,16.98,13.77,30.75,30.75,30.75c1.42,0,2.77-0.23,4.14-0.42   l43.4,90.74l81.76,13.55l77.99,182.31l-31.96,149.7l117.2,197.61v208.29l-160.97-151.49v-68.69l-63.67-97.02l19.44-108.73   L2269,1452.8c5.94-5.6,9.7-13.5,9.7-22.31c0-16.98-13.77-30.75-30.75-30.75c-16.98,0-30.75,13.77-30.75,30.75   c0,16.98,13.77,30.75,30.75,30.75c1.19,0,2.32-0.22,3.47-0.35l40.66,114.61l-14.95,83.64L2185.82,1520   c4.96-5.46,8.06-12.64,8.06-20.59c0-16.98-13.77-30.75-30.75-30.75s-30.75,13.77-30.75,30.75c0,16.98,13.77,30.75,30.75,30.75   c2.02,0,3.99-0.22,5.91-0.6l31.07,47.34l-51.65-12.9l-115.59-143.01c3.24-4.87,5.15-10.71,5.15-17.01   c0-16.98-13.77-30.75-30.75-30.75c-16.98,0-30.75,13.77-30.75,30.75c0,16.98,13.77,30.75,30.75,30.75c3.66,0,7.11-0.75,10.37-1.92   l119.88,148.32l78.17,19.52l121.22,184.73v71.25l78.89,74.25l-89.72-30.36l-80.06-85.97l-107.6-40.08l-103.86-140.41   c4.73-5.41,7.69-12.4,7.69-20.15c0-16.98-13.77-30.75-30.75-30.75c-16.98,0-30.75,13.77-30.75,30.75   c0,16.98,13.77,30.75,30.75,30.75c2.2,0,4.34-0.25,6.41-0.69l108.41,146.56l108.69,40.49l52.6,56.48l-101.2-34.25l-126.49,14.76   l-130.81-66.35c1.8-3.91,2.87-8.22,2.87-12.81c0-16.98-13.77-30.75-30.75-30.75c-16.98,0-30.75,13.77-30.75,30.75   c0,16.98,13.77,30.75,30.75,30.75c5.01,0,9.68-1.32,13.86-3.44l111.35,56.48l-91.43,12.85c-4.56-11.27-15.57-19.24-28.48-19.24   c-16.98,0-30.75,13.77-30.75,30.75c0,16.98,13.77,30.75,30.75,30.75c14.27,0,26.16-9.77,29.63-22.95l123.19-17.32l125-14.58   l265.21,89.75l67.59,63.62v112.46h-292.53v28.91h604.35v-28.91h-292.53v-112.46l67.59-63.62l265.21-89.75l125,14.58l123.19,17.32   c3.47,13.18,15.36,22.94,29.63,22.94c16.98,0,30.75-13.77,30.75-30.75c0-16.98-13.77-30.75-30.75-30.75   c-12.91,0-23.92,7.97-28.48,19.24l-91.44-12.85l111.35-56.49C3142.67,1818.29,3147.33,1819.61,3152.35,1819.61z"
                            name="Layer %{number}" zoom="1" data-layer-id="8815877527909"
                            style="fill: rgb(245, 245, 245); fill-opacity: 1;"></path>
                        <path
                            d="M2445.23,1796.91c0-2.2-1.78-3.98-3.98-3.98c-2.2,0-3.98,1.78-3.98,3.98c0,2.2,1.78,3.98,3.98,3.98   C2443.45,1800.89,2445.23,1799.11,2445.23,1796.91z"
                            name="Layer %{number}" zoom="1" data-layer-id="7223941427909"
                            style="fill: rgb(245, 245, 245); fill-opacity: 1;"></path>
                        <path
                            d="M2360.15,1683.2c7.47,0,13.52-6.05,13.52-13.52c0-7.47-6.05-13.52-13.52-13.52c-7.46,0-13.52,6.05-13.52,13.52   C2346.63,1677.15,2352.68,1683.2,2360.15,1683.2z"
                            name="Layer %{number}" zoom="1" data-layer-id="0622303227909"
                            style="fill: rgb(245, 245, 245); fill-opacity: 1;"></path>
                        <circle cx="2189.18" cy="1694.33" r="3.18" name="Layer %{number}" zoom="1"
                            data-layer-id="5956791427909" style="fill: rgb(245, 245, 245); fill-opacity: 1;"></circle>
                        <path
                            d="M2030.94,1766.3c0-3.73-3.03-6.76-6.76-6.76c-3.73,0-6.76,3.03-6.76,6.76c0,3.73,3.03,6.76,6.76,6.76   C2027.91,1773.06,2030.94,1770.03,2030.94,1766.3z"
                            name="Layer %{number}" zoom="1" data-layer-id="7471914827909"
                            style="fill: rgb(245, 245, 245); fill-opacity: 1;"></path>
                        <circle cx="1902.12" cy="1574.26" r="13.52" name="Layer %{number}" zoom="1"
                            data-layer-id="9039434827909" style="fill: rgb(245, 245, 245); fill-opacity: 1;"></circle>
                        <circle cx="1752.22" cy="1783" r="9.94" name="Layer %{number}" zoom="1"
                            data-layer-id="4851179727909" style="fill: rgb(245, 245, 245); fill-opacity: 1;"></circle>
                        <circle cx="1765.74" cy="1574.26" r="13.52" name="Layer %{number}" zoom="1"
                            data-layer-id="1210831327909" style="fill: rgb(245, 245, 245); fill-opacity: 1;"></circle>
                        <path
                            d="M2360.15,1454.58c0-3.73-3.03-6.76-6.76-6.76c-3.73,0-6.76,3.03-6.76,6.76c0,3.73,3.03,6.76,6.76,6.76   C2357.12,1461.34,2360.15,1458.32,2360.15,1454.58z"
                            name="Layer %{number}" zoom="1" data-layer-id="5361612627909"
                            style="fill: rgb(245, 245, 245); fill-opacity: 1;"></path>
                        <path
                            d="M2203.49,1315.82c6.15,0,11.13-4.98,11.13-11.13c0-6.15-4.98-11.13-11.13-11.13c-6.15,0-11.13,4.98-11.13,11.13   C2192.36,1310.84,2197.34,1315.82,2203.49,1315.82z"
                            name="Layer %{number}" zoom="1" data-layer-id="1697187627909"
                            style="fill: rgb(245, 245, 245); fill-opacity: 1;"></path>
                        <path
                            d="M2063.54,1229.94c10.54,0,19.09-8.54,19.09-19.08c0-10.54-8.54-19.08-19.09-19.08c-10.54,0-19.08,8.54-19.08,19.08   C2044.46,1221.4,2053,1229.94,2063.54,1229.94z"
                            name="Layer %{number}" zoom="1" data-layer-id="1072207427909"
                            style="fill: rgb(245, 245, 245); fill-opacity: 1;"></path>
                        <path
                            d="M1890.98,1373.08c1.32,0,2.39-1.07,2.39-2.39c0-1.32-1.07-2.39-2.39-2.39s-2.39,1.07-2.39,2.39   C1888.6,1372.01,1889.67,1373.08,1890.98,1373.08z"
                            name="Layer %{number}" zoom="1" data-layer-id="2602567427909"
                            style="fill: rgb(245, 245, 245); fill-opacity: 1;"></path>
                        <path
                            d="M2109.26,1046.25c3.29,0,5.96-2.67,5.96-5.96s-2.67-5.96-5.96-5.96c-3.29,0-5.97,2.67-5.97,5.96   S2105.97,1046.25,2109.26,1046.25z"
                            name="Layer %{number}" zoom="1" data-layer-id="5470926627909"
                            style="fill: rgb(245, 245, 245); fill-opacity: 1;"></path>
                        <path
                            d="M2422.17,1018.42c3.07,0,5.56-2.49,5.56-5.57s-2.49-5.57-5.56-5.57c-3.08,0-5.57,2.49-5.57,5.57   S2419.1,1018.42,2422.17,1018.42z"
                            name="Layer %{number}" zoom="1" data-layer-id="4755947427909"
                            style="fill: rgb(245, 245, 245); fill-opacity: 1;"></path>
                        <path
                            d="M2480.22,1139.29c4.39,0,7.95-3.56,7.95-7.95c0-4.39-3.56-7.95-7.95-7.95c-4.39,0-7.95,3.56-7.95,7.95   C2472.27,1135.73,2475.83,1139.29,2480.22,1139.29z"
                            name="Layer %{number}" zoom="1" data-layer-id="1292834327909"
                            style="fill: rgb(245, 245, 245); fill-opacity: 1;"></path>
                        <path
                            d="M2484.99,1330.14c7.03,0,12.73-5.7,12.73-12.72c0-7.03-5.7-12.72-12.73-12.72s-12.72,5.7-12.72,12.72   C2472.27,1324.44,2477.96,1330.14,2484.99,1330.14z"
                            name="Layer %{number}" zoom="1" data-layer-id="8614694827909"
                            style="fill: rgb(245, 245, 245); fill-opacity: 1;"></path>
                        <path
                            d="M2370.88,921.41c9.66,0,17.5-7.83,17.5-17.49c0-9.66-7.83-17.49-17.5-17.49s-17.49,7.83-17.49,17.49   C2353.39,913.58,2361.22,921.41,2370.88,921.41z"
                            name="Layer %{number}" zoom="1" data-layer-id="6349478827909"
                            style="fill: rgb(245, 245, 245); fill-opacity: 1;"></path>
                        <circle cx="2565.3" cy="837.92" r="5.57" name="Layer %{number}" zoom="1"
                            data-layer-id="5162110627909" style="fill: rgb(245, 245, 245); fill-opacity: 1;"></circle>
                        <path
                            d="M2584.39,1193.37c7.47,0,13.52-6.05,13.52-13.52c0-7.47-6.05-13.52-13.52-13.52c-7.46,0-13.52,6.05-13.52,13.52   C2570.87,1187.31,2576.92,1193.37,2584.39,1193.37z"
                            name="Layer %{number}" zoom="1" data-layer-id="8578062127909"
                            style="fill: rgb(245, 245, 245); fill-opacity: 1;"></path>
                        <path
                            d="M2845.13,932.54c5.66,0,10.25-4.59,10.25-10.26c0-5.66-4.59-10.26-10.25-10.26c-5.67,0-10.26,4.59-10.26,10.26   C2834.87,927.95,2839.47,932.54,2845.13,932.54z"
                            name="Layer %{number}" zoom="1" data-layer-id="5463513927909"
                            style="fill: rgb(245, 245, 245); fill-opacity: 1;"></path>
                        <path
                            d="M2747.8,984.23c2.86,0,5.17-2.31,5.17-5.17c0-2.85-2.31-5.17-5.17-5.17c-2.85,0-5.17,2.31-5.17,5.17   C2742.63,981.92,2744.95,984.23,2747.8,984.23z"
                            name="Layer %{number}" zoom="1" data-layer-id="4540261827909"
                            style="fill: rgb(245, 245, 245); fill-opacity: 1;"></path>
                        <path
                            d="M2941.43,1088.4c6.15,0,11.13-4.98,11.13-11.13c0-6.15-4.98-11.13-11.13-11.13c-6.15,0-11.13,4.98-11.13,11.13   C2930.3,1083.42,2935.28,1088.4,2941.43,1088.4z"
                            name="Layer %{number}" zoom="1" data-layer-id="5796675127909"
                            style="fill: rgb(245, 245, 245); fill-opacity: 1;"></path>
                        <circle cx="2948.98" cy="1237.5" r="7.55" name="Layer %{number}" zoom="1"
                            data-layer-id="8155408527909" style="fill: rgb(245, 245, 245); fill-opacity: 1;"></circle>
                        <circle cx="2840" cy="1289.15" r="5.13" name="Layer %{number}" zoom="1"
                            data-layer-id="3772131427909" style="fill: rgb(245, 245, 245); fill-opacity: 1;"></circle>
                        <path
                            d="M2932.68,1373.08c9.22,0,16.7-7.48,16.7-16.7c0-9.22-7.48-16.7-16.7-16.7c-9.22,0-16.7,7.48-16.7,16.7   C2915.98,1365.6,2923.46,1373.08,2932.68,1373.08z"
                            name="Layer %{number}" zoom="1" data-layer-id="1358086327909"
                            style="fill: rgb(245, 245, 245); fill-opacity: 1;"></path>
                        <path
                            d="M2722.75,1379.84c0-3.73-3.03-6.76-6.76-6.76c-3.73,0-6.76,3.03-6.76,6.76c0,3.73,3.03,6.76,6.76,6.76   C2719.73,1386.6,2722.75,1383.57,2722.75,1379.84z"
                            name="Layer %{number}" zoom="1" data-layer-id="8504539427909"
                            style="fill: rgb(245, 245, 245); fill-opacity: 1;"></path>
                        <path
                            d="M3096.49,1237.5c11.64,0,21.07-9.43,21.07-21.07c0-11.64-9.44-21.07-21.07-21.07c-11.64,0-21.07,9.43-21.07,21.07   C3075.42,1228.06,3084.85,1237.5,3096.49,1237.5z"
                            name="Layer %{number}" zoom="1" data-layer-id="3944748127909"
                            style="fill: rgb(245, 245, 245); fill-opacity: 1;"></path>
                        <circle cx="2700.49" cy="1505.87" r="10.34" name="Layer %{number}" zoom="1"
                            data-layer-id="8863732427909" style="fill: rgb(245, 245, 245); fill-opacity: 1;"></circle>
                        <circle cx="2705.26" cy="1614.02" r="15.11" name="Layer %{number}" zoom="1"
                            data-layer-id="3628955327909" style="fill: rgb(245, 245, 245); fill-opacity: 1;"></circle>
                        <path
                            d="M2616.99,1758.94c0,4.06,3.29,7.36,7.36,7.36c4.06,0,7.36-3.29,7.36-7.36c0-4.06-3.29-7.36-7.36-7.36   C2620.28,1751.59,2616.99,1754.88,2616.99,1758.94z"
                            name="Layer %{number}" zoom="1" data-layer-id="6045323427909"
                            style="fill: rgb(245, 245, 245); fill-opacity: 1;"></path>
                        <path
                            d="M2653.57,1808.05c0,3.95,3.2,7.16,7.16,7.16s7.16-3.2,7.16-7.16c0-3.95-3.21-7.16-7.16-7.16   S2653.57,1804.09,2653.57,1808.05z"
                            name="Layer %{number}" zoom="1" data-layer-id="7104317427909"
                            style="fill: rgb(245, 245, 245); fill-opacity: 1;"></path>
                        <circle cx="2825.33" cy="1754.77" r="9.54" name="Layer %{number}" zoom="1"
                            data-layer-id="9749111127909" style="fill: rgb(245, 245, 245); fill-opacity: 1;"></circle>
                        <path
                            d="M2956.54,1658.35c0,1.21,0.98,2.19,2.19,2.19c1.21,0,2.19-0.98,2.19-2.19c0-1.21-0.98-2.19-2.19-2.19   C2957.52,1656.17,2956.54,1657.14,2956.54,1658.35z"
                            name="Layer %{number}" zoom="1" data-layer-id="6079059327909"
                            style="fill: rgb(245, 245, 245); fill-opacity: 1;"></path>
                        <path
                            d="M3167.26,1489.18c4.39,0,7.95-3.56,7.95-7.95c0-4.39-3.56-7.95-7.95-7.95c-4.39,0-7.95,3.56-7.95,7.95   C3159.31,1485.62,3162.87,1489.18,3167.26,1489.18z"
                            name="Layer %{number}" zoom="1" data-layer-id="5782195527910"
                            style="fill: rgb(245, 245, 245); fill-opacity: 1;"></path>
                        <circle cx="3151.06" cy="1670.78" r="12.42" name="Layer %{number}" zoom="1"
                            data-layer-id="7857992327910" style="fill: rgb(245, 245, 245); fill-opacity: 1;"></circle>
                        <path
                            d="M3245.99,1597.72c0-5.49-4.45-9.94-9.94-9.94s-9.94,4.45-9.94,9.94c0,5.49,4.45,9.94,9.94,9.94   S3245.99,1603.21,3245.99,1597.72z"
                            name="Layer %{number}" zoom="1" data-layer-id="6913666427910"
                            style="fill: rgb(245, 245, 245); fill-opacity: 1;"></path>
                        <path
                            d="M3186.75,1339.68c-6.37,0-11.53,5.16-11.53,11.53s5.16,11.53,11.53,11.53s11.53-5.16,11.53-11.53   S3193.11,1339.68,3186.75,1339.68z"
                            name="Layer %{number}" zoom="1" data-layer-id="0318895727910"
                            style="fill: rgb(245, 245, 245); fill-opacity: 1;"></path>
                        <path
                            d="M3009.82,1778.03c0,2.74,2.23,4.97,4.97,4.97c2.75,0,4.97-2.22,4.97-4.97s-2.22-4.97-4.97-4.97   C3012.04,1773.06,3009.82,1775.28,3009.82,1778.03z"
                            name="Layer %{number}" zoom="1" data-layer-id="5163696627910"
                            style="fill: rgb(245, 245, 245); fill-opacity: 1;"></path>
                        <path
                            d="M3241.02,1854.96c-2.74,0-4.97,2.22-4.97,4.97s2.23,4.97,4.97,4.97c2.75,0,4.97-2.23,4.97-4.97   S3243.76,1854.96,3241.02,1854.96z"
                            name="Layer %{number}" zoom="1" data-layer-id="3946504527910"
                            style="fill: rgb(245, 245, 245); fill-opacity: 1;"></path>
                        <path
                            d="M3246.88,1737.28c-5.98,0-10.84,4.85-10.84,10.83c0,5.98,4.85,10.83,10.84,10.83c5.98,0,10.83-4.85,10.83-10.83   C3257.72,1742.13,3252.86,1737.28,3246.88,1737.28z"
                            name="Layer %{number}" zoom="1" data-layer-id="6727998327910"
                            style="fill: rgb(245, 245, 245); fill-opacity: 1;"></path>
                        <path
                            d="M2923.14,1931.3c-3.95,0-7.16,3.2-7.16,7.16c0,3.95,3.2,7.16,7.16,7.16c3.95,0,7.16-3.2,7.16-7.16   C2930.3,1934.51,2927.09,1931.3,2923.14,1931.3z"
                            name="Layer %{number}" zoom="1" data-layer-id="5616570727910"
                            style="fill: rgb(245, 245, 245); fill-opacity: 1;"></path>
                        <path
                            d="M2124.77,1918.58c-5.27,0-9.54,4.27-9.54,9.54c0,5.27,4.27,9.54,9.54,9.54c5.27,0,9.54-4.27,9.54-9.54   C2134.31,1922.85,2130.04,1918.58,2124.77,1918.58z"
                            name="Layer %{number}" zoom="1" data-layer-id="0917460727910"
                            style="fill: rgb(245, 245, 245); fill-opacity: 1;"></path>
                        <circle cx="2020.8" cy="1966.49" r="3.38" name="Layer %{number}" zoom="1"
                            data-layer-id="2823619127910" style="fill: rgb(245, 245, 245); fill-opacity: 1">
                        </circle>
                    </svg>
                </g>
            </svg>